<svg xmlns="http://www.w3.org/2000/svg" viewBox="0 0 64 64"><g id="_09-Leaderboard" data-name="09-Leaderboard"><polygon points="63 59 63 63 1 63 1 59 5 59 23 59 41 59 59 59 63 59" style="fill:#422b57"/><rect x="41" y="45" width="18" height="14" style="fill:#774e9d"/><rect x="5" y="37" width="18" height="22" style="fill:#9c59a9"/><path d="M34,17v4H30V17l.07-.27a7.033,7.033,0,0,0,3.86,0Z" style="fill:#ff9102"/><polygon points="37 21 37 25 27 25 27 21 30 21 34 21 37 21" style="fill:#ffcb02"/><path d="M39,10a5.365,5.365,0,0,1-.08.99,6.972,6.972,0,0,1-4.99,5.74,7.033,7.033,0,0,1-3.86,0,6.972,6.972,0,0,1-4.99-5.74A5.365,5.365,0,0,1,25,10V1H39v9Z" style="fill:#ffcb02"/><rect x="23" y="25" width="18" height="34" style="fill:#cb73db"/><path d="M29.08,10.99A5.365,5.365,0,0,1,29,10V1H25v9a5.365,5.365,0,0,0,.08.99,6.972,6.972,0,0,0,4.99,5.74,7.033,7.033,0,0,0,3.86,0c.024-.007.046-.019.07-.026A6.968,6.968,0,0,1,29.08,10.99Z" style="fill:#ffab02"/><path d="M41.515,8.826A2,2,0,0,0,42,7.56V4H39v6A3.08,3.08,0,0,0,41.515,8.826Z" style="fill:none"/><path d="M22,4V7.56a2,2,0,0,0,.492,1.274A3.073,3.073,0,0,0,25,10V4Z" style="fill:none"/><path d="M27,21v4H37V23H31a1,1,0,0,1-1-1V21Z" style="fill:#ffab02"/><path d="M41,45V59H59V56H51a6,6,0,0,1-6-6V45Z" style="fill:#654285"/><path d="M23,37V59H5V56h8a6,6,0,0,0,6-6V37Z" style="fill:#8b4f96"/><path d="M23,25V59H41V56H33a6,6,0,0,1-6-6V25Z" style="fill:#b667c4"/><path d="M63,58H60V45a1,1,0,0,0-1-1H46v2H58V58H42V46h2V44H42V34H40V58H24V26H40v2h2V25a1,1,0,0,0-1-1H38V21a1,1,0,0,0-1-1H35V17.411a8.024,8.024,0,0,0,4.75-5.464,5.007,5.007,0,0,0,3.3-1.84A3.95,3.95,0,0,0,44,7.558V3a1,1,0,0,0-1-1H40V1a1,1,0,0,0-1-1H25a1,1,0,0,0-1,1V2H21a1,1,0,0,0-1,1V7.558a3.95,3.95,0,0,0,.955,2.549,5.007,5.007,0,0,0,3.3,1.84A8.024,8.024,0,0,0,29,17.411V20H27a1,1,0,0,0-1,1v3H23a1,1,0,0,0-1,1V36H20v2h2V58H6V38H18V36H5a1,1,0,0,0-1,1V58H1a1,1,0,0,0-1,1v4a1,1,0,0,0,1,1H63a1,1,0,0,0,1-1V59A1,1,0,0,0,63,58ZM22,7.558V4h2V9.844a3.068,3.068,0,0,1-1.509-1.017A1.981,1.981,0,0,1,22,7.558ZM42,4V7.558a1.981,1.981,0,0,1-.491,1.269A3.068,3.068,0,0,1,40,9.844V4ZM26,10V2H38v8a6,6,0,0,1-12,0Zm5,7.931a7.281,7.281,0,0,0,2,0V20H31ZM28,22h8v2H28ZM62,62H2V60H62Z"/><rect x="40" y="30" width="2" height="2"/><path d="M37,10H35c0,.123-.045,3-4,3v2C35.746,15,37,11.729,37,10Z"/></g></svg>